<?xml version="1.0" encoding="UTF-8" standalone="no"?>
<!-- Created with Inkscape (http://www.inkscape.org/) -->

<svg
   width="59.402122mm"
   height="77.866348mm"
   viewBox="0 0 59.402122 77.866348"
   version="1.1"
   id="svg1"
   xml:space="preserve"
   inkscape:version="1.3.2 (091e20e, 2023-11-25, custom)"
   sodipodi:docname="boundaryConditions.svg"
   xmlns:inkscape="http://www.inkscape.org/namespaces/inkscape"
   xmlns:sodipodi="http://sodipodi.sourceforge.net/DTD/sodipodi-0.dtd"
   xmlns="http://www.w3.org/2000/svg"
   xmlns:svg="http://www.w3.org/2000/svg"><sodipodi:namedview
     id="namedview1"
     pagecolor="#ffffff"
     bordercolor="#000000"
     borderopacity="0.25"
     inkscape:showpageshadow="2"
     inkscape:pageopacity="0.0"
     inkscape:pagecheckerboard="0"
     inkscape:deskcolor="#d1d1d1"
     inkscape:document-units="mm"
     inkscape:zoom="0.72426347"
     inkscape:cx="189.84804"
     inkscape:cy="220.22373"
     inkscape:window-width="1920"
     inkscape:window-height="1009"
     inkscape:window-x="1912"
     inkscape:window-y="112"
     inkscape:window-maximized="1"
     inkscape:current-layer="layer1" /><defs
     id="defs1" /><g
     inkscape:label="Layer 1"
     inkscape:groupmode="layer"
     id="layer1"
     transform="translate(-54.712689,-90.251518)"><path
       style="fill:#000000"
       d="m 102.47314,167.47732 c -1.90857,-0.94077 -6.562476,-5.6377 -10.617136,-10.71526 -2.7455,-3.43813 -9.28287,-11.94667 -10.28495,-13.38608 -0.21828,-0.31355 -1.66427,-2.33695 -3.21331,-4.49645 -3.60086,-5.01991 -4.66917,-6.57685 -9.592917,-13.98053 -7.502669,-11.28153 -11.189413,-17.65309 -13.013033,-22.48958 -1.63126,-4.326328 -1.351726,-7.394018 0.908311,-9.968058 1.369793,-1.5601 3.145966,-2.18161 6.257825,-2.18969 3.115209,-0.008 4.334994,0.28993 9.659134,2.35996 11.3937,4.42988 21.98781,10.830528 29.724576,17.958718 4.74935,4.37576 6.60765,7.70121 8.64232,15.46559 0.88369,3.37219 1.33527,8.00588 1.50319,15.4244 0.22947,10.13801 -0.36267,15.36666 -2.45285,21.65881 -0.77407,2.33022 -1.13908,3.0422 -1.98116,3.86448 -0.91051,0.88909 -1.21231,1.01996 -2.55853,1.10949 -1.25559,0.0835 -1.78434,-0.0257 -2.98147,-0.6158 z m 4.87255,-0.9224 c 0.99624,-0.87471 1.59136,-2.22607 2.6423,-5.99992 1.37413,-4.9344 1.61413,-7.44074 1.60278,-16.73829 -0.0139,-11.39233 -0.44714,-15.03942 -2.54581,-21.43125 -1.57714,-4.80341 -2.82522,-6.81807 -6.36545,-10.27516 -3.329266,-3.25108 -5.973626,-5.39984 -10.095646,-8.20352 -6.9052,-4.696728 -15.08894,-8.803678 -23.346,-11.716018 -6.383553,-2.25154 -10.918085,-1.51444 -12.879712,2.09362 -1.524357,2.80378 -1.101621,5.68118 1.676713,11.412708 3.256314,6.71758 14.617739,24.26381 23.483719,36.26753 11.02443,14.92606 18.19102,23.30304 21.219136,24.80293 1.78572,0.8845 3.44564,0.80791 4.60797,-0.21263 z M 84.216894,126.35421 c 0,-0.83631 0.36681,-1.0693 0.62485,-0.39688 0.0838,0.21828 0.43527,0.39688 0.78113,0.39688 h 0.62884 l -0.75283,-1.4925 c -0.82807,-1.64166 -0.94177,-2.84059 -0.39247,-4.1384 0.60142,-1.42093 1.36126,-1.90973 2.9687,-1.90973 1.18633,0 1.53786,0.11644 2.12547,0.70405 1.24234,1.24235 1.13781,4.17697 -0.2176,6.10897 l -0.51046,0.72761 h 0.68778 c 0.37828,0 0.75631,-0.1786 0.84008,-0.39688 0.28473,-0.74199 0.80403,-0.43948 0.68128,0.39688 -0.11291,0.76928 -0.16042,0.79375 -1.54168,0.79375 -0.78384,0 -1.42517,-0.10393 -1.42517,-0.23095 0,-0.12703 0.25942,-0.81163 0.57648,-1.52136 0.39483,-0.88376 0.58242,-1.84642 0.59532,-3.05486 0.0162,-1.51786 -0.0708,-1.8599 -0.62261,-2.44739 -0.85155,-0.90666 -1.92685,-0.90089 -2.64666,0.0142 -0.74108,0.94214 -0.75026,3.5285 -0.0193,5.45158 0.29096,0.76555 0.52909,1.4812 0.52916,1.59034 8e-5,0.10914 -0.65471,0.19844 -1.45507,0.19844 -1.44051,0 -1.45521,-0.008 -1.45521,-0.79375 z m 2.97656,-27.449298 c -0.47294,-0.23538 -0.85989,-0.51366 -0.85989,-0.6184 0,-0.2502 1.79166,-1.30358 2.19793,-1.29225 0.17358,0.005 0.0273,0.24878 -0.32498,0.54209 l -0.64058,0.53329 2.36037,-0.14049 c 6.54173,-0.38938 7.78434,-0.42157 7.78434,-0.20168 0,0.25686 -3.70096,0.5787 -6.72138,0.58452 -1.03267,0.002 -2.14824,0.0761 -2.47906,0.16476 -0.56415,0.15115 -0.57236,0.18324 -0.13229,0.51714 0.68046,0.51629 -0.0836,0.45889 -1.18446,-0.089 z m 13.414366,-0.28947 c -0.47556,-0.38508 -0.59715,-0.7433 -0.58244,-1.71593 0.039,-2.57824 2.20164,-4.33496 4.09153,-3.32352 0.52539,0.28118 0.54389,0.2443 0.40327,-0.80413 -0.0811,-0.60435 -0.29173,-1.27275 -0.46815,-1.48532 -0.41144,-0.49575 -1.33451,-0.49484 -1.99134,0.002 -0.61328,0.46386 -0.91047,0.50538 -0.91047,0.12721 0,-0.33589 1.61814,-1.04484 2.38478,-1.04484 0.30233,0 0.85821,0.30852 1.23528,0.68559 0.64905,0.64905 0.67816,0.79395 0.5462,2.71919 -0.23039,3.36131 -1.5078,5.32647 -3.46235,5.32647 -0.35491,0 -0.91575,-0.219 -1.24631,-0.48668 z m 1.98724,-0.20741 c 0.72272,-0.27733 1.50305,-2.13098 1.41379,-3.3584 -0.0707,-0.97216 -0.16475,-1.11665 -0.77268,-1.18718 -1.37812,-0.15988 -2.84792,2.75758 -2.09655,4.16153 0.30237,0.56498 0.70624,0.67155 1.45544,0.38405 z m 4.05498,-0.0997 c -0.0795,-0.54165 -0.005,-0.79375 0.23455,-0.79375 0.19308,0 0.35105,0.1786 0.35105,0.39688 0,0.25036 0.25233,0.39687 0.68351,0.39687 0.37593,0 0.63774,-0.0893 0.5818,-0.19843 -0.0559,-0.10914 -0.3768,-0.78145 -0.71305,-1.49402 -1.29171,-2.73738 -0.20152,-5.56486 2.27366,-5.89685 3.09548,-0.41519 4.44756,2.79834 2.6418,6.27885 l -0.67988,1.31045 h 0.65709 c 0.3614,0 0.72563,-0.17859 0.80939,-0.39687 0.25803,-0.67242 0.62485,-0.43943 0.62485,0.39687 0,0.78574 -0.0147,0.79375 -1.45521,0.79375 -0.80037,0 -1.45515,-0.0893 -1.45508,-0.19843 8e-5,-0.10914 0.2382,-0.8248 0.52917,-1.59034 0.73092,-1.92308 0.72175,-4.50945 -0.0193,-5.45159 -0.5787,-0.7357 -1.48859,-0.90001 -2.37045,-0.42805 -1.09042,0.58357 -1.2937,3.74129 -0.3814,5.92474 0.64982,1.55523 0.55223,1.74367 -0.90308,1.74367 -1.23426,0 -1.29817,-0.036 -1.40938,-0.79375 z"
       id="path1" /></g></svg>
